<?xml version="1.0" encoding="utf-8"?>
<svg viewBox="109.054 69.438 11.74 11.76" xmlns="http://www.w3.org/2000/svg">
  <path d="M 120.534 73.538 C 120.714 74.098 120.774 74.638 120.794 75.258 L 114.994 69.438 C 115.554 69.438 116.174 69.558 116.714 69.758 L 120.534 73.538 Z M 120.774 75.578 C 120.774 75.898 120.774 76.258 120.654 76.678 L 113.594 69.578 C 113.974 69.498 114.354 69.478 114.694 69.498 L 120.774 75.578 Z M 120.534 77.018 C 120.414 77.298 120.354 77.598 120.214 77.858 L 112.394 70.018 C 112.674 69.898 112.874 69.758 113.214 69.698 L 120.534 77.018 Z M 119.054 71.178 C 119.694 71.818 120.214 72.538 120.474 73.318 L 116.954 69.798 C 117.754 70.078 118.434 70.538 119.054 71.178 Z M 120.014 78.238 C 119.934 78.458 119.774 78.638 119.574 78.838 L 111.394 70.638 L 111.974 70.198 L 120.014 78.238 Z M 119.094 79.478 L 118.894 79.698 L 110.554 71.378 L 110.794 71.178 L 110.994 70.938 L 119.314 79.278 L 119.094 79.478 Z M 118.334 80.078 C 118.254 80.158 118.134 80.258 117.994 80.318 L 109.894 72.238 L 110.154 71.878 L 118.334 80.078 Z M 109.354 73.378 C 109.414 73.258 109.474 73.078 109.554 72.978 L 117.234 80.678 L 116.874 80.858 L 109.354 73.378 Z M 115.914 81.118 L 115.614 81.198 L 109.094 74.638 L 109.114 74.298 L 115.914 81.118 Z M 109.114 76.258 L 109.054 76.038 L 114.234 81.198 L 113.994 81.158 L 109.114 76.258 Z M 110.734 79.498 C 110.554 79.358 110.454 79.238 110.314 79.038 L 111.114 79.818 L 110.734 79.498 Z" fill="#FFFCE5"/>
</svg>