<svg width="99" height="101" viewBox="0 0 99 101" fill="none" xmlns="http://www.w3.org/2000/svg">
<path d="M14.9402 0.00262368C14.5502 -0.0273763 14.1802 0.202624 14.0002 0.552624C13.1602 2.20262 -6.42976 41.1826 2.18024 55.8126C4.23024 59.2926 7.67024 61.1426 12.4102 61.3226C12.6402 61.3226 12.8602 61.3326 13.0802 61.3326C17.3102 61.3326 20.5502 59.7826 22.7102 56.7226C32.4602 42.9126 16.5002 2.35262 15.8202 0.632624C15.6802 0.262624 15.3302 0.0226237 14.9402 0.00262368Z" fill="#9CD6F2"/>
<path d="M88.6502 0.632624C88.5102 0.262624 88.1602 0.0226237 87.7702 0.00262368C87.3802 -0.0273763 87.0102 0.202624 86.8302 0.552624C85.9902 2.20262 66.4002 41.1826 75.0102 55.8126C77.0602 59.2926 80.5002 61.1426 85.2402 61.3226C85.4702 61.3226 85.6902 61.3326 85.9102 61.3326C90.1402 61.3326 93.3802 59.7826 95.5402 56.7226C105.29 42.9126 89.3302 2.35262 88.6402 0.632624H88.6502Z" fill="#9CD6F2"/>
<path d="M51.7202 39.4626C51.3302 39.4326 50.9602 39.6626 50.7802 40.0126C49.9402 41.6626 30.3502 80.6426 38.9602 95.2726C41.0102 98.7526 44.4502 100.603 49.1902 100.783C49.4202 100.783 49.6402 100.793 49.8602 100.793C54.0902 100.793 57.3302 99.2426 59.4902 96.1826C69.2402 82.3726 53.2802 41.8126 52.5902 40.0926C52.4502 39.7226 52.1002 39.4826 51.7102 39.4626H51.7202Z" fill="#9CD6F2"/>
</svg>
