<svg width="84" height="29" viewBox="0 0 84 29" fill="none" xmlns="http://www.w3.org/2000/svg">
<g clip-path="url(#clip0_32_382)">
<path d="M5.12099 0.215271V12.2566H2.31152V0.215271H5.12099Z" fill="#FFFCE5"/>
<path d="M21.1702 12.2615H17.3346L10.9286 2.85252V12.2615H8.11914V0.215271H11.9548L18.3607 9.62425V0.215271H21.1702V12.2566V12.2615Z" fill="#FFFCE5"/>
<path d="M31.507 0C36.2393 0 39.3177 2.603 39.3177 6.22861C39.3177 9.85423 36.2393 12.4572 31.507 12.4572C26.7747 12.4572 23.6963 9.85423 23.6963 6.22861C23.6963 2.603 26.7747 0 31.507 0ZM31.507 10.5539C34.9142 10.5539 36.3987 8.60165 36.3987 6.22861C36.3987 3.85558 34.9142 1.90332 31.507 1.90332C28.0998 1.90332 26.6153 3.85558 26.6153 6.22861C26.6153 8.60165 28.0998 10.5539 31.507 10.5539Z" fill="#FFFCE5"/>
<path d="M54.6547 0.215271V7.23653C54.6547 10.7251 52.5078 12.4621 48.2488 12.4621C43.9897 12.4621 41.8428 10.7251 41.8428 7.23653V0.215271H44.6522V7.23653C44.6522 9.96675 46.0072 10.5539 48.2488 10.5539C50.4903 10.5539 51.8453 9.96675 51.8453 7.23653V0.215271H54.6547Z" fill="#FFFCE5"/>
<path d="M68.8267 12.2615H56.5527V10.4022L65.1206 1.9082H56.5527V0.215271H68.8267V2.05988L60.2588 10.5539H68.8267V12.2566V12.2615Z" fill="#FFFCE5"/>
<path d="M70.7246 0.215271H81.0608V1.90331H73.5341V5.4066H80.6026V7.09464H73.5341V10.549H81.5341V12.2517H70.7246V0.215271Z" fill="#FFFCE5"/>
<path d="M0 16.7581H10.3362V18.4461H2.80946V21.9494H9.87796V23.6374H2.80946V27.0918H10.8095V28.7945H0V16.7532V16.7581Z" fill="#FFFCE5"/>
<path d="M19.5217 26.167L24.0996 16.7581H27.2727L21.0062 28.7994H18.0224L11.7559 16.7581H14.9439L19.5217 26.167Z" fill="#FFFCE5"/>
<path d="M29.0059 16.7581H39.3421V18.4461H31.8153V21.9494H38.8838V23.6374H31.8153V27.0918H39.8153V28.7945H29.0059V16.7532V16.7581Z" fill="#FFFCE5"/>
<path d="M55.0735 28.7994H51.2379L44.8319 19.3904V28.7994H42.0225V16.7581H45.8581L52.2641 26.167V16.7581H55.0735V28.7994Z" fill="#FFFCE5"/>
<path d="M56.8115 16.7581H70.4155V18.4461H65.0207V28.7994H62.2113V18.4461H56.8165V16.7581H56.8115Z" fill="#FFFCE5"/>
<path d="M80.0897 21.9201C83.0885 22.5121 84.005 23.8283 84.005 25.438C84.005 27.7768 81.4645 29.0049 78.1669 29.0049C72.9266 29.0049 71.3027 26.6172 71.208 24.8802L74.0972 24.1512C74.0972 24.1512 73.7335 27.0967 78.1221 27.0967C79.9851 27.0967 81.1208 26.5683 81.1208 25.6533C81.1208 24.5524 80.1594 24.3518 78.4708 23.9946L75.3475 23.3439C72.9814 22.8497 71.6563 21.6558 71.6563 20.1342C71.6563 18.2602 73.4845 16.5379 77.3201 16.5379C83.2528 16.5379 83.5218 20.0852 83.5218 20.0852L80.6327 20.8583C80.6327 20.8583 80.7273 18.4412 77.2055 18.4412C75.5318 18.4412 74.5555 19.0479 74.5555 19.8357C74.5555 20.6234 75.4371 21.0002 76.7173 21.2448L80.0947 21.9103L80.0897 21.9201Z" fill="#FFFCE5"/>
</g>
<defs>
<clipPath id="clip0_32_382">
<rect width="84" height="29" fill="white"/>
</clipPath>
</defs>
</svg>
