<svg width="71" height="76" viewBox="0 0 71 76" fill="none" xmlns="http://www.w3.org/2000/svg">
<path d="M14.6177 0.142928V8.13713H12.9252V0.142928H14.6177Z" fill="#0D293D"/>
<path d="M24.2839 8.14038H21.9731L18.1139 1.89379V8.14038H16.4213V0.142928H18.7321L22.5913 6.38952V0.142928H24.2839V8.14038Z" fill="#0D293D"/>
<path d="M30.5109 0C33.3618 0 35.2164 1.72813 35.2164 4.13516C35.2164 6.54219 33.3618 8.27032 30.5109 8.27032C27.66 8.27032 25.8054 6.54219 25.8054 4.13516C25.8054 1.72813 27.66 0 30.5109 0ZM30.5109 7.00671C32.5635 7.00671 33.4578 5.71061 33.4578 4.13516C33.4578 2.55971 32.5635 1.26361 30.5109 1.26361C28.4582 1.26361 27.5639 2.55971 27.5639 4.13516C27.5639 5.71061 28.4582 7.00671 30.5109 7.00671Z" fill="#0D293D"/>
<path d="M44.4594 0.142928V4.80432C44.4594 7.1204 43.166 8.27032 40.6001 8.27032C38.0343 8.27032 36.7409 7.11715 36.7409 4.80432V0.142928H38.4335V4.80432C38.4335 6.6169 39.2497 7.0067 40.6001 7.0067C41.9506 7.0067 42.7668 6.6169 42.7668 4.80432V0.142928H44.4594Z" fill="#0D293D"/>
<path d="M52.9972 8.14038H45.5998V6.90601L50.7614 1.26686H45.5998V0.142928H52.9972V1.36756L47.8355 7.00671H52.9972V8.14038Z" fill="#0D293D"/>
<path d="M54.1375 0.142928H60.3646V1.26361H55.8301V3.58943H60.0885V4.71012H55.8301V7.00346H60.6497V8.13389H54.1375V0.142928Z" fill="#0D293D"/>
<path d="M11.5327 11.1256H17.7598V12.2463H13.2253V14.5721H17.4837V15.6928H13.2253V17.9862H18.0448V19.1166H11.5327V11.1224V11.1256Z" fill="#0D293D"/>
<path d="M23.2905 17.3722L26.0484 11.1256H27.9601L24.1848 19.1198H22.3873L18.612 11.1256H20.5327L23.2905 17.3722Z" fill="#0D293D"/>
<path d="M29.0044 11.1256H35.2314V12.2463H30.6969V14.5721H34.9553V15.6928H30.6969V17.9862H35.5165V19.1166H29.0044V11.1224V11.1256Z" fill="#0D293D"/>
<path d="M44.7115 19.1198H42.4007L38.5415 12.8732V19.1198H36.8489V11.1256H39.1597L43.0189 17.3722V11.1256H44.7115V19.1198Z" fill="#0D293D"/>
<path d="M45.7588 11.1256H53.9545V12.2463H50.7044V19.1198H49.0119V12.2463H45.7618V11.1256H45.7588Z" fill="#0D293D"/>
<path d="M59.7794 14.5526C61.5859 14.9424 62.1381 15.8195 62.1381 16.8882C62.1381 18.4409 60.6076 19.2563 58.621 19.2563C55.464 19.2563 54.4857 17.6711 54.4286 16.5179L56.1692 16.0339C56.1692 16.0339 55.9501 17.9894 58.594 17.9894C59.7163 17.9894 60.4006 17.6386 60.4006 17.0311C60.4006 16.3003 59.8214 16.1671 58.8041 15.9299L56.9224 15.4979C55.497 15.1698 54.6987 14.3772 54.6987 13.367C54.6987 12.1229 55.8001 10.9794 58.1108 10.9794C61.685 10.9794 61.847 13.3345 61.847 13.3345L60.1065 13.8477C60.1065 13.8477 60.1635 12.2431 58.0448 12.2431C57.0365 12.2431 56.4483 12.6459 56.4483 13.1688C56.4483 13.6918 56.9795 13.9419 57.7507 14.1044L59.7854 14.5461L59.7794 14.5526Z" fill="#0D293D"/>
<path d="M70.997 74.5758V49.3328C70.997 49.3328 70.997 49.3166 70.997 49.3068V24.0151C70.997 23.7877 70.8259 23.6026 70.6159 23.6026H0.381123C0.171055 23.6026 0 23.7877 0 24.0151V74.6992C0 74.9266 0.171055 75.1118 0.381123 75.1118H10.4674C10.9986 75.1897 11.5387 75.2319 12.0879 75.2319C12.6371 75.2319 13.1773 75.1897 13.7084 75.1118H23.6146C23.6717 75.1475 23.7347 75.167 23.8007 75.167C23.8667 75.167 23.9268 75.1475 23.9868 75.1118H70.6189C70.8289 75.1118 71 74.9266 71 74.6992V74.5985C71 74.5985 71 74.5823 71 74.5758H70.997ZM46.341 48.9462H24.713L35.5015 37.2684L46.341 48.9462ZM70.2347 37.3756V48.8715H63.5306C63.6866 48.7676 63.7556 48.5532 63.6836 48.3648L60.1905 39.2337C60.2475 39.1947 60.3045 39.1557 60.3586 39.1135L66.8166 46.1039C66.8917 46.1851 66.9877 46.2241 67.0867 46.2241C67.1858 46.2241 67.2818 46.1851 67.3568 46.1039C67.5069 45.9415 67.5069 45.6816 67.3568 45.5225L60.8987 38.532C60.9377 38.4735 60.9767 38.4118 61.0098 38.3501L69.4455 42.1344C69.4935 42.1572 69.5415 42.1669 69.5895 42.1669C69.7396 42.1669 69.8806 42.0727 69.9407 41.9135C70.0217 41.7024 69.9286 41.462 69.7336 41.3743L61.2979 37.5932C61.3129 37.5218 61.3249 37.4503 61.3369 37.3788H70.2347V37.3756ZM56.4813 37.3756C56.4903 37.4471 56.5053 37.5185 56.5203 37.59L48.0846 41.3711C47.8895 41.4588 47.7995 41.6992 47.8775 41.9103C47.9375 42.0695 48.0786 42.1637 48.2286 42.1637C48.2766 42.1637 48.3277 42.1539 48.3727 42.1312L56.8084 38.3501C56.8444 38.4118 56.8804 38.4735 56.9194 38.532L50.4613 45.5225C50.3113 45.6849 50.3113 45.9448 50.4613 46.1039C50.5364 46.1851 50.6324 46.2241 50.7314 46.2241C50.8305 46.2241 50.9265 46.1851 51.0015 46.1039L57.4596 39.1135C57.5136 39.1557 57.5706 39.1979 57.6277 39.2337L54.1315 48.3648C54.0595 48.5532 54.1285 48.7676 54.2846 48.8715H47.5804V37.3756H56.4813ZM58.531 39.591V48.8715H54.6837C54.7497 48.8293 54.8067 48.7643 54.8368 48.6799L58.3329 39.5487C58.3989 39.565 58.4649 39.578 58.531 39.591ZM59.2902 48.8715V39.591C59.3562 39.5812 59.4222 39.565 59.4883 39.5487L62.9814 48.6799C63.0144 48.7643 63.0684 48.8293 63.1344 48.8715H59.2902ZM58.531 24.4536V34.3384C58.4649 34.3481 58.3989 34.3644 58.3329 34.3806L54.8398 25.2495C54.7587 25.0383 54.5367 24.9409 54.3416 25.0253C54.1465 25.113 54.0565 25.3534 54.1345 25.5646L57.6277 34.6957C57.5706 34.7347 57.5136 34.7737 57.4596 34.8159L51.0015 27.8254C50.8515 27.663 50.6114 27.663 50.4643 27.8254C50.3143 27.9878 50.3143 28.2477 50.4643 28.4069L56.9224 35.3973C56.8834 35.4558 56.8474 35.5175 56.8114 35.5793L48.3757 31.7949C48.1806 31.7105 47.9585 31.8079 47.8775 32.0191C47.7965 32.2302 47.8895 32.4706 48.0846 32.5583L56.5203 36.3426C56.5053 36.4141 56.4933 36.4855 56.4813 36.557H47.5834V24.4309H58.531C58.531 24.4309 58.531 24.4471 58.531 24.4569V24.4536ZM23.4136 48.9462H12.469V24.4276H23.4136V48.9462ZM0.759246 49.7681H22.8584L3.73021 70.3984C1.90862 68.2285 0.798259 65.3472 0.798259 62.1898C0.798259 62.1281 0.783254 62.0664 0.759246 62.0144V49.7681ZM24.1728 50.3658L34.9553 62.0371L24.1728 73.7637V50.3658ZM35.7596 62.3262L46.8182 50.3528V74.2867H24.761L35.7566 62.3262H35.7596ZM48.6638 62.4399H58.9091C59.1192 62.4399 59.2902 62.2548 59.2902 62.0274C59.2902 61.8 59.1192 61.6148 58.9091 61.6148H48.9549L70.2347 49.9532V73.9586L48.6638 62.4367V62.4399ZM70.2347 36.5505H61.3369C61.3279 36.479 61.3129 36.4076 61.2979 36.3361L69.7336 32.555C69.9286 32.4673 70.0187 32.2269 69.9407 32.0158C69.8596 31.8047 69.6376 31.7072 69.4425 31.7917L61.0068 35.5728C60.9707 35.511 60.9347 35.4493 60.8957 35.3908L67.3538 28.4004C67.5039 28.238 67.5039 27.9781 67.3538 27.8189C67.2038 27.6598 66.9637 27.6565 66.8166 27.8189L60.3586 34.8094C60.3045 34.7672 60.2475 34.7249 60.1905 34.6892L63.6866 25.5581C63.7677 25.3469 63.6746 25.1065 63.4796 25.0188C63.2845 24.9344 63.0624 25.0318 62.9814 25.243L59.4883 34.3741C59.4222 34.3579 59.3562 34.3449 59.2902 34.3319V24.4471C59.2902 24.4471 59.2902 24.4309 59.2902 24.4211H70.2377V36.5473L70.2347 36.5505ZM46.8242 48.3063L35.7596 36.3881L24.71 24.4276H46.8242V48.3063ZM0.759246 74.2867V66.64C1.92963 70.119 4.42943 72.9061 7.58946 74.2867H0.759246ZM23.4136 66.64V74.2867H16.5834C19.7434 72.9061 22.2462 70.1158 23.4136 66.64Z" fill="#0D293D"/>
</svg>
