<svg width="106" height="44" viewBox="0 0 44 44" fill="none" xmlns="http://www.w3.org/2000/svg">
<path d="M43.3157 21.3042H26.4858C26.4684 21.1824 26.4452 21.0606 26.4162 20.9389L41.9644 14.5024C42.324 14.3516 42.4922 13.9457 42.3414 13.5862C42.1906 13.2267 41.7846 13.0585 41.4251 13.2093L25.8711 19.6516C25.8073 19.5472 25.7377 19.4428 25.6623 19.3442L37.5627 7.44544C37.8352 7.1729 37.8352 6.72641 37.5627 6.45387C37.2901 6.18134 36.8435 6.18134 36.571 6.45387L24.6706 18.3527C24.572 18.2773 24.4676 18.2135 24.3633 18.1497L30.8064 2.60358C30.9572 2.24407 30.7832 1.83817 30.4294 1.6874C30.0699 1.53664 29.6639 1.7106 29.5131 2.06431L23.07 17.6104C22.9482 17.5814 22.8264 17.5583 22.7046 17.5409V0.701634C22.7046 0.313126 22.3915 0 22.0029 0C21.6143 0 21.3012 0.313126 21.3012 0.701634V17.5293C21.1794 17.5467 21.0576 17.5698 20.9358 17.5988L14.5043 2.05271C14.3535 1.6932 13.9475 1.52504 13.588 1.6758C13.2284 1.82657 13.0602 2.23247 13.211 2.59199L19.6541 18.1439C19.5498 18.2077 19.4454 18.2773 19.3468 18.3527L7.43482 6.44228C7.16225 6.16974 6.7157 6.16974 6.44313 6.44228C6.17055 6.71481 6.17055 7.16131 6.44313 7.43384L18.3435 19.3326C18.2681 19.4312 18.2043 19.5356 18.1405 19.64L2.59233 13.2035C2.23277 13.0527 1.82681 13.2267 1.67602 13.5804C1.52524 13.9399 1.69922 14.3458 2.05299 14.4966L17.6012 20.9389C17.5722 21.0606 17.549 21.1824 17.5316 21.3042H0.701727C0.313167 21.3042 0 21.6173 0 22.0058C0 22.3943 0.313167 22.7074 0.701727 22.7074H17.5316C17.549 22.8292 17.5722 22.951 17.6012 23.0727L2.05299 29.5092C1.69342 29.66 1.52524 30.0659 1.67602 30.4254C1.78621 30.6979 2.04719 30.8603 2.32556 30.8603C2.41255 30.8603 2.50534 30.8429 2.59233 30.8081L18.1463 24.3658C18.2101 24.4702 18.2797 24.5746 18.3551 24.6732L6.45473 36.572C6.18215 36.8445 6.18215 37.291 6.45473 37.5635C6.59391 37.7027 6.77369 37.7665 6.94767 37.7665C7.12165 37.7665 7.30724 37.6969 7.44062 37.5635L19.341 25.6647C19.4396 25.7401 19.544 25.8039 19.6483 25.8677L13.2052 41.4138C13.0544 41.7733 13.2284 42.1792 13.5822 42.33C13.6692 42.3648 13.762 42.3822 13.849 42.3822C14.1215 42.3822 14.3825 42.2198 14.4985 41.9473L20.9416 26.4012C21.0634 26.4302 21.1852 26.4533 21.307 26.4707V43.2984C21.307 43.6869 21.6201 44 22.0087 44C22.3973 44 22.7104 43.6869 22.7104 43.2984V26.4707C22.8322 26.4533 22.954 26.4302 23.0758 26.4012L29.5131 41.9473C29.6233 42.2198 29.8843 42.3822 30.1626 42.3822C30.2496 42.3822 30.3424 42.3648 30.4294 42.33C30.789 42.1792 30.9572 41.7733 30.8064 41.4138L24.3633 25.8619C24.4676 25.7981 24.572 25.7285 24.6706 25.6531L36.571 37.5519C36.7102 37.6911 36.8899 37.7549 37.0639 37.7549C37.2379 37.7549 37.4235 37.6853 37.5569 37.5519C37.8294 37.2794 37.8294 36.8329 37.5569 36.5604L25.6565 24.6616C25.7319 24.563 25.7957 24.4586 25.8595 24.3542L41.4077 30.7965C41.4947 30.8313 41.5875 30.8487 41.6744 30.8487C41.947 30.8487 42.208 30.6863 42.324 30.4138C42.4748 30.0543 42.3008 29.6484 41.947 29.4976L26.3988 23.0553C26.4278 22.9336 26.451 22.8118 26.4684 22.69H43.2983C43.6868 22.69 44 22.3769 44 21.9884C44 21.5999 43.6868 21.2868 43.2983 21.2868L43.3157 21.3042Z" />
</svg>
