<svg width="50" height="79" viewBox="0 0 50 79" fill="none" xmlns="http://www.w3.org/2000/svg">
<path d="M49.6565 0.954941H0.343501C0.15343 0.954941 0 1.11503 0 1.31336V78.5289C0 78.7272 0.15343 78.8873 0.343501 78.8873H49.6405C49.8305 78.8873 49.984 78.7272 49.984 78.5289V52.8947C49.9931 52.8613 50 52.8254 50 52.7896V1.31336C50 1.11503 49.8466 0.954941 49.6565 0.954941ZM49.313 52.4312H41.0965C44.9643 51.1648 48.0329 48.0083 49.313 44.0035V52.4312ZM0.687002 40.3405H10.1195C10.131 40.4146 10.1447 40.4863 10.1608 40.5579L1.27324 44.3978C1.11981 44.4647 1.02592 44.6176 1.02592 44.7801C1.02592 44.8351 1.03508 44.89 1.05569 44.9426C1.11981 45.1027 1.26866 45.2007 1.42667 45.2007C1.47705 45.2007 1.52972 45.1911 1.5801 45.1696L10.4676 41.3297C10.5043 41.3919 10.5432 41.454 10.5844 41.5137L3.7808 48.6128C3.70294 48.6941 3.66401 48.8016 3.66401 48.9091C3.66401 49.0166 3.70294 49.1242 3.7808 49.2054C3.85866 49.2867 3.96171 49.3273 4.06476 49.3273C4.16781 49.3273 4.27086 49.2867 4.34872 49.2054L11.1523 42.1063C11.2096 42.1493 11.2668 42.1899 11.3287 42.2282L7.64633 51.5017C7.62572 51.5543 7.61427 51.6092 7.61656 51.6642C7.61656 51.8267 7.71045 51.982 7.86388 52.0465C7.91426 52.068 7.96693 52.0775 8.01731 52.0775C8.17532 52.0775 8.32417 51.9796 8.38829 51.8195L12.0706 42.546C12.1393 42.5627 12.208 42.577 12.279 42.589V52.4312H0.687002V40.3381V40.3405ZM13.0782 42.589C13.1492 42.577 13.2179 42.5627 13.2866 42.546L16.9667 51.8195C17.0308 51.9796 17.1796 52.0775 17.3376 52.0775C17.388 52.0775 17.4407 52.068 17.4911 52.0465C17.6445 51.9796 17.7384 51.8267 17.7384 51.6642C17.7384 51.6092 17.7292 51.5543 17.7086 51.5017L14.0286 42.2282C14.0881 42.1899 14.1477 42.1493 14.2049 42.1063L21.0085 49.2054C21.0864 49.2867 21.1894 49.3273 21.2925 49.3273C21.3955 49.3273 21.4986 49.2867 21.5764 49.2054C21.6543 49.1242 21.6932 49.0166 21.6932 48.9091C21.6932 48.8016 21.6543 48.6941 21.5764 48.6128L14.7728 41.5137C14.8141 41.454 14.853 41.3942 14.8896 41.3297L23.7771 45.172C23.8275 45.1935 23.8802 45.2031 23.9306 45.2031C24.0886 45.2031 24.2374 45.1051 24.3015 44.945C24.3222 44.8924 24.3336 44.8375 24.3313 44.7825C24.3313 44.62 24.2374 44.4647 24.084 44.4002L15.1965 40.5579C15.2125 40.4863 15.2263 40.4146 15.2377 40.3405H24.6496V52.4336H13.0805V42.5914L13.0782 42.589ZM25.355 44.0609C26.6442 48.037 29.7014 51.1719 33.5509 52.4312H25.355V44.0609ZM28.4327 48.1684C26.532 45.9605 25.3733 43.043 25.3733 39.8459C25.3733 39.8076 25.3641 39.7718 25.3527 39.736V27.4087H49.2764L28.4327 48.166V48.1684ZM24.6473 39.5042H15.2354C15.224 39.4301 15.2102 39.3584 15.1942 39.2867L24.0817 35.4469C24.2351 35.38 24.329 35.227 24.329 35.0646C24.329 35.0096 24.3199 34.9546 24.2993 34.9021C24.2145 34.6894 23.9809 34.5867 23.7748 34.6751L14.885 38.5149C14.8484 38.4528 14.8095 38.3907 14.7683 38.331L21.5719 31.2319C21.6497 31.1506 21.6887 31.0431 21.6887 30.9356C21.6887 30.828 21.6497 30.7205 21.5719 30.6393C21.4161 30.4768 21.162 30.4768 21.0062 30.6393L14.2026 37.7384C14.1454 37.6954 14.0881 37.6547 14.0263 37.6165L17.7086 28.343C17.7292 28.2904 17.7407 28.2355 17.7384 28.1805C17.7384 28.018 17.6445 27.8627 17.4911 27.7982C17.2873 27.7098 17.0514 27.8101 16.9667 28.0252L13.2843 37.2987C13.2156 37.282 13.1469 37.2676 13.0759 37.2557V27.4135H24.6451V39.5066L24.6473 39.5042ZM12.2767 27.4111V37.2533C12.2057 37.2653 12.137 37.2796 12.0683 37.2963L8.38829 28.0228C8.30356 27.8101 8.06998 27.7074 7.86388 27.7958C7.71045 27.8627 7.61656 28.0156 7.61656 28.1781C7.61656 28.2331 7.62572 28.288 7.64633 28.3406L11.3264 37.6165C11.2668 37.6547 11.2073 37.6954 11.15 37.7384L4.34643 30.6393C4.19071 30.4768 3.93652 30.4768 3.7808 30.6393C3.70294 30.7205 3.66401 30.828 3.66401 30.9356C3.66401 31.0431 3.70294 31.1506 3.7808 31.2319L10.5844 38.331C10.5432 38.3907 10.5043 38.4504 10.4676 38.5149L1.5801 34.6727C1.37629 34.5843 1.14042 34.6846 1.05569 34.8997C1.03508 34.9523 1.02363 35.0072 1.02592 35.0622C1.02592 35.2247 1.11981 35.38 1.27324 35.4445L10.1608 39.2867C10.1447 39.3584 10.131 39.4301 10.1195 39.5042H0.687002V27.4111H12.2767ZM49.313 1.67178V26.171L37.0317 13.3634L25.9435 1.67178H49.313ZM37.3294 14.6872L48.8435 26.6943H25.9435L37.3294 14.6872ZM13.021 1.67178H24.6473V26.6943H13.021V1.67178ZM0.687002 53.6618L12.0935 65.6712L0.687002 77.6735V53.6618ZM24.6267 53.4802V78.1705H1.16103L24.6267 53.4802ZM49.297 78.0678L26.3855 66.118H37.3065C37.4966 66.118 37.65 65.9579 37.65 65.7596C37.65 65.5613 37.4966 65.4012 37.3065 65.4012H26.4175L49.2947 53.16V78.0654L49.297 78.0678Z" />
</svg>
