<svg width="286" height="31" viewBox="0 0 286 31" fill="none" xmlns="http://www.w3.org/2000/svg">
<path d="M100.223 15.5429L114.006 0.743085C114.122 0.619238 114.157 0.428703 114.095 0.266749C114.033 0.104794 113.882 0 113.723 0H85.6652C85.581 0 85.5102 0.0333436 85.4437 0.0809773C85.4216 0.0666872 85.4039 0.0428703 85.3773 0.0333436C85.3286 0.00952674 85.2754 0 85.2223 0H57.1645C57.129 0 57.098 0.00952674 57.0626 0.0142901C57.0316 0.00476337 56.9962 0 56.9652 0H28.9074C28.8232 0 28.7523 0.0333436 28.6859 0.0809773C28.6638 0.0666872 28.6461 0.0428703 28.6195 0.0333436C28.5708 0.00952674 28.5176 0 28.4645 0H0.402228C0.238355 0 0.092197 0.104794 0.0301908 0.271512C-0.0318154 0.43823 0.00361676 0.624001 0.118771 0.747849L13.9019 15.4571L0.118771 30.2522C0.00361676 30.376 -0.0318154 30.5665 0.0301908 30.7285C0.092197 30.8904 0.242784 30.9952 0.402228 30.9952H28.46C28.5442 30.9952 28.6151 30.9619 28.6815 30.9143C28.7036 30.9285 28.7213 30.9524 28.7479 30.9619C28.7966 30.9857 28.8498 30.9952 28.9029 30.9952H56.9607C56.9962 30.9952 57.0272 30.9905 57.0626 30.9809C57.0936 30.9905 57.129 30.9952 57.16 30.9952H85.2178C85.302 30.9952 85.3729 30.9619 85.4393 30.9143C85.4614 30.9285 85.4792 30.9524 85.5057 30.9619C85.5545 30.9857 85.6076 30.9952 85.6608 30.9952H113.719C113.882 30.9952 114.029 30.8904 114.095 30.7237C114.161 30.557 114.122 30.3712 114.006 30.2474L100.223 15.5381V15.5429ZM28.6726 30.195C28.6106 30.1521 28.5442 30.1235 28.4645 30.1235H1.38104L28.6948 0.800246C28.7568 0.843116 28.8232 0.871696 28.9029 0.871696H55.9819L28.6726 30.195ZM57.0626 30.0521L43.4655 15.5429L57.0626 0.943147L70.6597 15.4524L57.0582 30.0521H57.0626ZM85.4349 30.195C85.3729 30.1521 85.3064 30.1235 85.2267 30.1235H58.1477L85.457 0.800246C85.519 0.843116 85.5854 0.871696 85.6652 0.871696H112.744L85.4349 30.195Z" fill="#FFFCE5"/>
<path d="M171.38 30.2522L157.597 15.5429L171.38 0.743085C171.495 0.619238 171.53 0.428703 171.468 0.266749C171.406 0.104794 171.256 0 171.096 0H143.039C142.954 0 142.884 0.0333436 142.817 0.0809773C142.795 0.0666872 142.777 0.0428703 142.751 0.0333436C142.702 0.00952674 142.649 0 142.596 0H114.538C114.374 0 114.228 0.104794 114.161 0.271512C114.095 0.43823 114.135 0.624001 114.25 0.747849L128.033 15.4571L114.25 30.2569C114.135 30.3808 114.099 30.5713 114.161 30.7332C114.223 30.8952 114.374 31 114.533 31H142.591C142.675 31 142.746 30.9667 142.813 30.919C142.835 30.9333 142.853 30.9571 142.879 30.9667C142.928 30.9905 142.981 31 143.034 31H171.092C171.256 31 171.402 30.8952 171.468 30.7285C171.535 30.5618 171.495 30.376 171.38 30.2522ZM142.804 30.195C142.742 30.1521 142.675 30.1235 142.596 30.1235H115.517L142.826 0.800246C142.888 0.843116 142.954 0.871696 143.034 0.871696H170.113L142.804 30.195Z" fill="#FFFCE5"/>
<path d="M271.723 15.5429L285.506 0.743085C285.621 0.619238 285.656 0.428703 285.594 0.266749C285.532 0.104794 285.382 0 285.222 0H257.165C257.08 0 257.01 0.0333436 256.943 0.0809773C256.921 0.0666872 256.903 0.0428703 256.877 0.0333436C256.828 0.00952674 256.775 0 256.722 0H228.664C228.628 0 228.597 0.00952674 228.562 0.0142901C228.531 0.00476337 228.496 0 228.465 0H200.407C200.323 0 200.252 0.0333436 200.185 0.0809773C200.163 0.0666872 200.145 0.0428703 200.119 0.0333436C200.07 0.00952674 200.017 0 199.964 0H171.902C171.738 0 171.592 0.104794 171.53 0.271512C171.468 0.43823 171.503 0.624001 171.618 0.747849L185.401 15.4571L171.618 30.2522C171.503 30.376 171.468 30.5665 171.53 30.7285C171.592 30.8904 171.742 30.9952 171.902 30.9952H199.959C200.044 30.9952 200.114 30.9619 200.181 30.9143C200.203 30.9285 200.221 30.9524 200.247 30.9619C200.296 30.9857 200.349 30.9952 200.402 30.9952H228.46C228.496 30.9952 228.527 30.9905 228.562 30.9809C228.593 30.9905 228.628 30.9952 228.659 30.9952H256.717C256.801 30.9952 256.872 30.9619 256.939 30.9143C256.961 30.9285 256.979 30.9524 257.005 30.9619C257.054 30.9857 257.107 30.9952 257.16 30.9952H285.218C285.382 30.9952 285.528 30.8904 285.594 30.7237C285.661 30.557 285.621 30.3712 285.506 30.2474L271.723 15.5381V15.5429ZM200.172 30.195C200.11 30.1521 200.044 30.1235 199.964 30.1235H172.88L200.194 0.800246C200.256 0.843116 200.323 0.871696 200.402 0.871696H227.481L200.172 30.195ZM228.562 30.0521L214.965 15.5429L228.562 0.943147L242.159 15.4524L228.558 30.0521H228.562ZM256.934 30.195C256.872 30.1521 256.806 30.1235 256.726 30.1235H229.647L256.956 0.800246C257.018 0.843116 257.085 0.871696 257.165 0.871696H284.244L256.934 30.195Z" fill="#FFFCE5"/>
</svg>
