<svg viewBox="0 0 864 55" fill="none" xmlns="http://www.w3.org/2000/svg">
<g clip-path="url(#clip0_809_214)">
<path d="M432.246 0.80022C432.144 0.697964 432.014 0.644791 431.871 0.644791C431.748 0.644791 431.634 0.685693 431.54 0.763408C431.291 0.657062 431.005 0.706145 430.805 0.902475L404.742 26.8795L378.774 0.873844C378.578 0.677513 378.288 0.62025 378.034 0.726596C377.781 0.62025 377.487 0.677513 377.295 0.873844L351.326 26.8795L325.256 0.902475C325.06 0.706145 324.77 0.657062 324.525 0.763408C324.48 0.726596 324.431 0.697964 324.374 0.681603C324.345 0.673423 324.316 0.669333 324.292 0.665242C324.263 0.661152 324.239 0.648881 324.206 0.648881C324.206 0.648881 324.202 0.648881 324.198 0.648881C324.198 0.648881 324.194 0.648881 324.19 0.648881C324.161 0.648881 324.133 0.661152 324.104 0.665242C324.076 0.669333 324.047 0.673423 324.022 0.681603C323.969 0.697964 323.92 0.730686 323.871 0.763408C323.622 0.657062 323.336 0.706145 323.14 0.902475L297.078 26.8795L271.113 0.873844C270.917 0.677513 270.627 0.62025 270.374 0.726596C270.121 0.62025 269.827 0.677513 269.635 0.873844L243.666 26.8795L217.596 0.902475C217.4 0.706145 217.11 0.657062 216.86 0.763408C216.771 0.685693 216.652 0.644791 216.534 0.644791C216.391 0.644791 216.256 0.702054 216.158 0.80022C216.117 0.841122 216.093 0.890204 216.064 0.939287C215.97 0.869753 215.864 0.820671 215.741 0.820671C215.598 0.820671 215.464 0.877934 215.361 0.980189C215.259 1.08244 215.206 1.21742 215.206 1.35649L215.333 53.3432L189.185 27.2844L162.779 0.841122C162.632 0.693874 162.424 0.62434 162.215 0.648881C162.154 0.644791 162.093 0.648881 162.036 0.661152C161.979 0.648881 161.917 0.644791 161.856 0.648881C161.648 0.62434 161.439 0.693874 161.292 0.841122L134.887 27.2844L108.743 53.3391V52.4229L108.861 1.36058C108.861 1.21742 108.804 1.08244 108.706 0.980189C108.604 0.877934 108.469 0.820671 108.326 0.820671C108.281 0.820671 108.244 0.837032 108.204 0.845212C108.163 0.837032 108.122 0.820671 108.081 0.820671C107.938 0.820671 107.803 0.877934 107.701 0.980189C107.599 1.08244 107.546 1.21742 107.546 1.35649L107.668 52.4147V53.335L81.5202 27.2803L55.1147 0.841122C54.9676 0.693874 54.7593 0.62434 54.551 0.648881C54.4898 0.644791 54.4285 0.648881 54.3713 0.661152C54.3141 0.648881 54.2529 0.644791 54.1916 0.648881C53.9833 0.62434 53.775 0.693874 53.628 0.841122L27.2224 27.2844L1.07419 53.3432L1.20081 1.36058C1.20081 1.21742 1.14363 1.08244 1.0456 0.980189C0.943493 0.877934 0.808708 0.820671 0.665755 0.820671C0.522801 0.820671 0.388017 0.877934 0.285907 0.976099C0.183797 1.07835 0.126616 1.21333 0.126616 1.35649L0 54.4639C0 54.6071 0.0571814 54.742 0.155207 54.8443C0.257316 54.9465 0.388016 54.9997 0.53097 54.9997C0.653502 54.9997 0.767864 54.9588 0.861805 54.8811C1.11095 54.9875 1.39686 54.9384 1.59699 54.742L27.6595 28.7651L53.628 54.7707C53.824 54.967 54.114 55.0243 54.3672 54.9179C54.6205 55.0243 54.9145 54.967 55.1065 54.7707L81.075 28.7651L107.137 54.742C107.334 54.9384 107.624 54.9875 107.869 54.8811C107.914 54.9179 107.963 54.9466 108.02 54.9629C108.048 54.9711 108.077 54.9752 108.101 54.9793C108.13 54.9834 108.155 54.9956 108.187 54.9956C108.187 54.9956 108.191 54.9956 108.195 54.9956C108.195 54.9956 108.199 54.9956 108.204 54.9956C108.232 54.9956 108.261 54.9834 108.289 54.9793C108.318 54.9752 108.346 54.9711 108.371 54.9629C108.424 54.9466 108.473 54.9138 108.522 54.8811C108.771 54.9875 109.057 54.9384 109.253 54.742L135.316 28.7651L161.284 54.7707C161.48 54.967 161.77 55.0243 162.023 54.9179C162.277 55.0243 162.571 54.967 162.763 54.7707L188.731 28.7651L214.794 54.742C214.99 54.9384 215.28 54.9875 215.529 54.8811C215.623 54.9547 215.737 54.9997 215.86 54.9997C216.003 54.9997 216.137 54.9425 216.235 54.8443C216.276 54.8034 216.301 54.7543 216.329 54.7052C216.423 54.7748 216.53 54.8238 216.652 54.8238C216.795 54.8238 216.93 54.7666 217.032 54.6643C217.134 54.5621 217.187 54.4271 217.187 54.288L217.061 2.30133L243.209 28.3601L269.614 54.8034C269.761 54.9506 269.97 55.0202 270.178 54.9956C270.239 54.9997 270.3 54.9956 270.358 54.9834C270.415 54.9956 270.476 54.9997 270.537 54.9956C270.746 55.0202 270.954 54.9506 271.101 54.8034L297.507 28.3601L323.651 2.30542V3.22572L323.532 54.2839C323.532 54.4271 323.589 54.5621 323.687 54.6643C323.79 54.7666 323.924 54.8238 324.067 54.8238C324.112 54.8238 324.149 54.8075 324.19 54.7993C324.231 54.8075 324.272 54.8238 324.312 54.8238C324.455 54.8238 324.59 54.7666 324.692 54.6643C324.794 54.5621 324.847 54.4271 324.847 54.288L324.725 3.22572V2.30951L350.873 28.3642L377.279 54.8075C377.426 54.9547 377.634 55.0243 377.842 54.9997C377.904 55.0038 377.965 54.9997 378.022 54.9875C378.079 54.9997 378.14 55.0038 378.202 54.9997C378.41 55.0243 378.618 54.9547 378.765 54.8075L405.171 28.3642L431.319 2.30542L431.193 54.288C431.193 54.4312 431.25 54.5662 431.348 54.6684C431.45 54.7707 431.585 54.8279 431.728 54.8279C431.871 54.8279 432.005 54.7707 432.107 54.6725C432.21 54.5702 432.267 54.4353 432.267 54.2921L432.393 1.1847C432.393 1.04154 432.336 0.906565 432.238 0.80431L432.246 0.80022Z" fill="#14301B"/>
</g>
<g clip-path="url(#clip1_809_214)">
<path d="M431.754 54.8448C431.856 54.9471 431.986 55.0003 432.129 55.0003C432.252 55.0003 432.366 54.9594 432.46 54.8816C432.709 54.988 432.995 54.9389 433.195 54.7426L459.258 28.7656L485.226 54.7712C485.422 54.9675 485.712 55.0248 485.966 54.9185C486.219 55.0248 486.513 54.9675 486.705 54.7712L512.674 28.7656L538.744 54.7426C538.94 54.9389 539.23 54.988 539.475 54.8816C539.52 54.9185 539.569 54.9471 539.626 54.9634C539.655 54.9716 539.684 54.9757 539.708 54.9798C539.737 54.9839 539.761 54.9962 539.794 54.9962C539.794 54.9962 539.798 54.9962 539.802 54.9962C539.802 54.9962 539.806 54.9962 539.81 54.9962C539.839 54.9962 539.867 54.9839 539.896 54.9798C539.924 54.9757 539.953 54.9716 539.978 54.9634C540.031 54.9471 540.08 54.9144 540.129 54.8816C540.378 54.988 540.664 54.9389 540.86 54.7426L566.922 28.7656L592.887 54.7712C593.083 54.9675 593.373 55.0248 593.626 54.9184C593.879 55.0248 594.173 54.9675 594.365 54.7712L620.334 28.7656L646.404 54.7426C646.6 54.9389 646.89 54.988 647.14 54.8816C647.229 54.9593 647.348 55.0002 647.466 55.0002C647.609 55.0002 647.744 54.943 647.842 54.8448C647.883 54.8039 647.907 54.7548 647.936 54.7058C648.03 54.7753 648.136 54.8244 648.259 54.8244C648.402 54.8244 648.536 54.7671 648.639 54.6648C648.741 54.5626 648.794 54.4276 648.794 54.2885L648.667 2.30186L674.815 28.3606L701.221 54.8039C701.368 54.9512 701.576 55.0207 701.785 54.9962C701.846 55.0002 701.907 54.9962 701.964 54.9839C702.021 54.9962 702.083 55.0002 702.144 54.9962C702.352 55.0207 702.561 54.9512 702.708 54.8039L729.113 28.3606L755.257 2.30594L755.257 3.22215L755.139 54.2844C755.139 54.4276 755.196 54.5626 755.294 54.6648C755.396 54.7671 755.531 54.8244 755.674 54.8244C755.719 54.8244 755.756 54.808 755.796 54.7998C755.837 54.808 755.878 54.8244 755.919 54.8244C756.062 54.8244 756.197 54.7671 756.299 54.6648C756.401 54.5626 756.454 54.4276 756.454 54.2885L756.332 3.23033L756.332 2.31002L782.48 28.3647L808.885 54.8039C809.032 54.9512 809.241 55.0207 809.449 54.9961C809.51 55.0002 809.571 54.9961 809.629 54.9839C809.686 54.9961 809.747 55.0002 809.808 54.9961C810.017 55.0207 810.225 54.9512 810.372 54.8039L836.778 28.3606L862.926 2.30184L862.799 54.2844C862.799 54.4276 862.856 54.5626 862.954 54.6648C863.057 54.7671 863.191 54.8243 863.334 54.8243C863.477 54.8243 863.612 54.7671 863.714 54.6689C863.816 54.5667 863.873 54.4317 863.873 54.2885L864 1.18111C864 1.03796 863.943 0.902985 863.845 0.800728C863.743 0.698471 863.612 0.645298 863.469 0.645298C863.346 0.645298 863.232 0.686195 863.138 0.763912C862.889 0.657566 862.603 0.706654 862.403 0.902985L836.341 26.88L810.372 0.874352C810.176 0.678021 809.886 0.620759 809.633 0.727105C809.38 0.620759 809.085 0.678021 808.893 0.874353L782.925 26.88L756.863 0.902994C756.666 0.706663 756.376 0.657575 756.131 0.763922C756.086 0.72711 756.037 0.698477 755.98 0.682119C755.952 0.673937 755.923 0.669851 755.899 0.665758C755.87 0.661669 755.845 0.649397 755.813 0.649397C755.813 0.649397 755.809 0.649397 755.805 0.649397C755.805 0.649397 755.801 0.649397 755.796 0.649397C755.768 0.649397 755.739 0.661669 755.711 0.665758C755.682 0.669851 755.654 0.673937 755.629 0.682119C755.576 0.698477 755.527 0.731199 755.478 0.763922C755.229 0.657576 754.943 0.706663 754.747 0.902994L728.684 26.88L702.716 0.874362C702.52 0.678031 702.23 0.620768 701.977 0.727115C701.723 0.620768 701.429 0.678031 701.237 0.874362L675.269 26.88L649.206 0.903003C649.01 0.706672 648.72 0.657585 648.471 0.763931C648.377 0.690307 648.263 0.645317 648.14 0.645317C647.997 0.645317 647.863 0.702583 647.765 0.800747C647.724 0.841648 647.699 0.890732 647.671 0.939812C647.577 0.870281 647.47 0.821194 647.348 0.821194C647.205 0.821194 647.07 0.878456 646.968 0.980713C646.866 1.08297 646.813 1.21795 646.813 1.35702L646.939 53.3437L620.791 27.2849L594.386 0.841649C594.239 0.694401 594.03 0.624867 593.822 0.649411C593.761 0.645318 593.7 0.649407 593.642 0.661679C593.585 0.649407 593.524 0.645318 593.463 0.649411C593.254 0.624867 593.046 0.694402 592.899 0.841649L566.493 27.2849L540.349 53.3396L540.349 52.4193L540.468 1.36112C540.468 1.21796 540.411 1.08298 540.313 0.980722C540.21 0.878465 540.076 0.821203 539.933 0.821203C539.888 0.821203 539.851 0.837568 539.81 0.845751C539.769 0.837568 539.728 0.821203 539.688 0.821203C539.545 0.821203 539.41 0.878465 539.308 0.980722C539.206 1.08298 539.153 1.21796 539.153 1.35703L539.275 52.4193L539.275 53.3355L513.127 27.2808L486.721 0.837573C486.574 0.690325 486.366 0.620791 486.158 0.645331C486.096 0.641242 486.035 0.645331 485.978 0.657599C485.921 0.645331 485.86 0.641242 485.798 0.645331C485.59 0.620791 485.382 0.690325 485.235 0.837573L458.829 27.2808L432.681 53.3396L432.807 1.35704C432.807 1.21388 432.75 1.0789 432.652 0.976642C432.55 0.874385 432.415 0.817123 432.272 0.817123C432.129 0.817123 431.995 0.874389 431.893 0.972553C431.79 1.07481 431.733 1.20979 431.733 1.35294L431.607 54.4604C431.607 54.6035 431.664 54.7385 431.762 54.8407L431.754 54.8448Z" fill="#14301B"/>
</g>
<defs>
<clipPath id="clip0_809_214">
<rect width="432.406" height="54.3549" fill="white" transform="translate(0 0.64502)"/>
</clipPath>
<clipPath id="clip1_809_214">
<rect width="432.406" height="54.3549" fill="white" transform="translate(864 55) rotate(180)"/>
</clipPath>
</defs>
</svg>
