<svg width="239" height="41" viewBox="0 0 239 41" fill="none" xmlns="http://www.w3.org/2000/svg">
<path d="M59.8486 20.936C59.8511 20.8833 59.8386 20.828 59.796 20.7854C59.796 20.7854 59.7935 20.7845 59.7885 20.7828H59.7584L59.6458 20.6674L49.9307 10.9266L40.0529 0.977471C40.0454 0.957387 40.0354 0.937303 40.0179 0.91973C40.0179 0.91973 40.0154 0.918893 40.0104 0.917219H20.1296C20.1096 0.917219 20.092 0.91973 20.0745 0.924751C20.0745 0.924751 20.0745 0.92224 20.072 0.91973C20.072 0.91973 20.0695 0.918893 20.0645 0.917219H0.18622C0.1086 0.914709 0.0434988 0.957387 0.0159562 1.02768C-0.0140903 1.09547 0.000932923 1.1758 0.0560182 1.22852L9.80361 11.0019L0.0660337 20.8155C0.0259717 20.8531 0.0109484 20.9033 0.0134523 20.9561C0.0109484 21.0063 0.0259717 21.059 0.0660337 21.0967L9.80361 30.9102L0.0560182 40.6836C0.000932923 40.7363 -0.0140903 40.8167 0.0134523 40.887C0.0409949 40.9573 0.1086 40.9999 0.183716 40.9999H20.0645C20.0645 40.9999 20.067 40.9999 20.072 40.9974C20.072 40.9974 20.072 40.9949 20.0745 40.9924C20.092 40.9974 20.1096 40.9999 20.1296 40.9999H40.0104C40.0104 40.9999 40.0129 40.9999 40.0179 40.9974C40.0354 40.9799 40.0454 40.9598 40.0529 40.9397L49.9307 30.9906L59.6458 21.2498L59.7584 21.1343H59.7885C59.7885 21.1343 59.791 21.1343 59.796 21.1318C59.8386 21.0891 59.8511 21.0339 59.8486 20.9812C59.8486 20.9736 59.8486 20.9661 59.8486 20.9611C59.8486 20.9536 59.8511 20.946 59.8486 20.941V20.936ZM20.0369 40.6485L19.9243 40.533L10.2092 30.7922L0.441615 20.9561L10.2092 11.1199L19.9218 1.37915L20.0344 1.26367L29.7495 11.0044L20.0119 20.818C19.9718 20.8556 19.9568 20.9059 19.9593 20.9586C19.9568 21.0088 19.9718 21.0615 20.0119 21.0992L29.7495 30.9127L20.0344 40.6535L20.0369 40.6485ZM39.9027 40.5681L39.8676 40.533L30.1526 30.7922L20.385 20.9561L30.1526 11.1199L39.8676 1.37915L39.9027 1.34401L49.5276 11.0421L39.78 20.8155C39.745 20.8481 39.7274 20.8958 39.7274 20.941C39.7274 20.946 39.7274 20.951 39.7274 20.9536C39.7274 20.9586 39.7274 20.9636 39.7274 20.9661C39.7274 21.0138 39.745 21.059 39.78 21.0916L49.5276 30.865L39.9027 40.5631V40.5681Z" fill="#FFFCE5"/>
<path d="M59.8508 20.9811C59.8483 21.0339 59.8607 21.0891 59.9029 21.1318C59.9029 21.1318 59.9054 21.1326 59.9104 21.1343L59.9401 21.1343L60.0518 21.2498L69.6777 30.9905L79.4649 40.9396C79.4723 40.9597 79.4822 40.9798 79.4996 40.9974C79.4996 40.9974 79.5021 40.9982 79.507 40.9999L99.2054 40.9999C99.2253 40.9999 99.2426 40.9974 99.26 40.9924C99.26 40.9924 99.26 40.9949 99.2625 40.9974C99.2625 40.9974 99.265 40.9982 99.2699 40.9999L118.966 40.9999C119.043 41.0024 119.107 40.9597 119.135 40.8894C119.164 40.8216 119.149 40.7413 119.095 40.6886L109.437 30.9152L119.085 21.1016C119.125 21.064 119.139 21.0138 119.137 20.961C119.139 20.9108 119.125 20.8581 119.085 20.8205L109.437 11.0069L119.095 1.23349C119.149 1.18077 119.164 1.10044 119.137 1.03014C119.11 0.95985 119.043 0.917171 118.968 0.917171L99.2699 0.917173C99.2699 0.917173 99.2674 0.917173 99.2625 0.919683C99.2625 0.919683 99.2625 0.922193 99.26 0.924707C99.2426 0.919683 99.2253 0.917173 99.2054 0.917173L79.507 0.917175C79.507 0.917175 79.5045 0.917175 79.4996 0.919685C79.4822 0.937259 79.4723 0.957344 79.4649 0.977428L69.6777 10.9266L60.0518 20.6673L59.9401 20.7828L59.9104 20.7828C59.9104 20.7828 59.9079 20.7828 59.9029 20.7853C59.8607 20.828 59.8483 20.8832 59.8508 20.9359C59.8508 20.9435 59.8508 20.951 59.8508 20.956C59.8508 20.9636 59.8483 20.9711 59.8508 20.9761L59.8508 20.9811ZM99.2972 1.26864L99.4088 1.38413L109.035 11.1249L118.713 20.961L109.035 30.7972L99.4113 40.538L99.2997 40.6534L89.6738 30.9127L99.322 21.0991C99.3617 21.0615 99.3766 21.0113 99.3741 20.9585C99.3766 20.9083 99.3617 20.8556 99.322 20.8179L89.6738 11.0044L99.2997 1.26362L99.2972 1.26864ZM79.6137 1.34898L79.6484 1.38413L89.2744 11.1249L98.9524 20.961L89.2744 30.7972L79.6484 40.538L79.6137 40.5731L70.0771 30.875L79.7353 21.1016C79.77 21.069 79.7874 21.0213 79.7874 20.9761C79.7874 20.9711 79.7874 20.9661 79.7874 20.9636C79.7874 20.9585 79.7874 20.9535 79.7874 20.951C79.7874 20.9033 79.77 20.8581 79.7353 20.8255L70.0771 11.0521L79.6137 1.354L79.6137 1.34898Z" fill="#FFFCE5"/>
<path d="M178.999 20.936C179.001 20.8833 178.989 20.828 178.946 20.7854C178.946 20.7854 178.944 20.7845 178.939 20.7828H178.909L178.796 20.6674L169.081 10.9266L159.203 0.977471C159.196 0.957387 159.186 0.937303 159.168 0.91973C159.168 0.91973 159.166 0.918893 159.161 0.917219H139.28C139.26 0.917219 139.242 0.91973 139.225 0.924751C139.225 0.924751 139.225 0.92224 139.222 0.91973C139.222 0.91973 139.22 0.918893 139.215 0.917219H119.337C119.259 0.914709 119.194 0.957387 119.166 1.02768C119.136 1.09547 119.151 1.1758 119.206 1.22852L128.954 11.0019L119.216 20.8155C119.176 20.8531 119.161 20.9033 119.164 20.9561C119.161 21.0063 119.176 21.059 119.216 21.0967L128.954 30.9102L119.206 40.6836C119.151 40.7363 119.136 40.8167 119.164 40.887C119.191 40.9573 119.259 40.9999 119.334 40.9999H139.215C139.215 40.9999 139.217 40.9999 139.222 40.9974C139.222 40.9974 139.222 40.9949 139.225 40.9924C139.242 40.9974 139.26 40.9999 139.28 40.9999H159.161C159.161 40.9999 159.163 40.9999 159.168 40.9974C159.186 40.9799 159.196 40.9598 159.203 40.9397L169.081 30.9906L178.796 21.2498L178.909 21.1343H178.939C178.939 21.1343 178.941 21.1343 178.946 21.1318C178.989 21.0891 179.001 21.0339 178.999 20.9812C178.999 20.9736 178.999 20.9661 178.999 20.9611C178.999 20.9536 179.001 20.946 178.999 20.941V20.936ZM139.187 40.6485L139.075 40.533L129.36 30.7922L119.592 20.9561L129.36 11.1199L139.072 1.37915L139.185 1.26367L148.9 11.0044L139.162 20.818C139.122 20.8556 139.107 20.9059 139.11 20.9586C139.107 21.0088 139.122 21.0615 139.162 21.0992L148.9 30.9127L139.185 40.6535L139.187 40.6485ZM159.053 40.5681L159.018 40.533L149.303 30.7922L139.535 20.9561L149.303 11.1199L159.018 1.37915L159.053 1.34401L168.678 11.0421L158.93 20.8155C158.895 20.8481 158.878 20.8958 158.878 20.941C158.878 20.946 158.878 20.951 158.878 20.9536C158.878 20.9586 158.878 20.9636 158.878 20.9661C158.878 21.0138 158.895 21.059 158.93 21.0916L168.678 30.865L159.053 40.5631V40.5681Z" fill="#FFFCE5"/>
<path d="M179.001 20.9811C178.999 21.0339 179.011 21.0891 179.053 21.1318C179.053 21.1318 179.056 21.1326 179.061 21.1343L179.09 21.1343L179.202 21.2498L188.828 30.9905L198.615 40.9396C198.623 40.9597 198.633 40.9798 198.65 40.9974C198.65 40.9974 198.652 40.9982 198.657 40.9999L218.356 40.9999C218.376 40.9999 218.393 40.9974 218.41 40.9924C218.41 40.9924 218.41 40.9949 218.413 40.9974C218.413 40.9974 218.415 40.9982 218.42 40.9999L238.116 40.9999C238.193 41.0024 238.258 40.9597 238.285 40.8894C238.315 40.8216 238.3 40.7413 238.245 40.6886L228.587 30.9152L238.235 21.1016C238.275 21.064 238.29 21.0138 238.287 20.961C238.29 20.9108 238.275 20.8581 238.235 20.8205L228.587 11.0069L238.245 1.23349C238.3 1.18077 238.315 1.10044 238.287 1.03014C238.26 0.95985 238.193 0.917171 238.119 0.917171L218.42 0.917173C218.42 0.917173 218.418 0.917173 218.413 0.919683C218.413 0.919683 218.413 0.922193 218.41 0.924707C218.393 0.919683 218.376 0.917173 218.356 0.917173L198.657 0.917175C198.657 0.917175 198.655 0.917175 198.65 0.919685C198.633 0.937259 198.623 0.957344 198.615 0.977428L188.828 10.9266L179.202 20.6673L179.09 20.7828L179.061 20.7828C179.061 20.7828 179.058 20.7828 179.053 20.7853C179.011 20.828 178.999 20.8832 179.001 20.9359C179.001 20.9435 179.001 20.951 179.001 20.956C179.001 20.9636 178.999 20.9711 179.001 20.9761L179.001 20.9811ZM218.448 1.26864L218.559 1.38413L228.185 11.1249L237.863 20.961L228.185 30.7972L218.562 40.538L218.45 40.6534L208.824 30.9127L218.472 21.0991C218.512 21.0615 218.527 21.0113 218.524 20.9585C218.527 20.9083 218.512 20.8556 218.472 20.8179L208.824 11.0044L218.45 1.26362L218.448 1.26864ZM198.764 1.34898L198.799 1.38413L208.425 11.1249L218.103 20.961L208.425 30.7972L198.799 40.538L198.764 40.5731L189.227 30.875L198.886 21.1016C198.92 21.069 198.938 21.0213 198.938 20.9761C198.938 20.9711 198.938 20.9661 198.938 20.9636C198.938 20.9585 198.938 20.9535 198.938 20.951C198.938 20.9033 198.92 20.8581 198.886 20.8255L189.227 11.0521L198.764 1.354L198.764 1.34898Z" fill="#FFFCE5"/>
</svg>
