<svg  viewBox="0 0 23 24" fill="none" xmlns="http://www.w3.org/2000/svg">
<path d="M16.3596 0.768066H6.64042C2.9731 0.768066 0 3.74116 0 7.40849V17.1276C0 20.795 2.9731 23.7681 6.64042 23.7681H16.3596C20.0269 23.7681 23 20.795 23 17.1276V7.40849C23 3.74116 20.0269 0.768066 16.3596 0.768066ZM20.8268 17.3087C20.8268 19.6426 18.9349 21.5345 16.601 21.5345C16.601 21.5345 14.1369 21.6552 11.631 21.6552C9.12514 21.6552 6.39895 21.5345 6.39895 21.5345C4.06514 21.5345 2.17323 19.6426 2.17323 17.3087C2.17323 17.3087 2.11286 14.9363 2.11286 12.4794C2.11286 9.84129 2.17323 7.10665 2.17323 7.10665C2.17323 4.77284 4.06514 2.88093 6.39895 2.88093C6.39895 2.88093 9.06538 2.76019 11.7517 2.76019C14.1501 2.76019 16.601 2.88093 16.601 2.88093C18.9349 2.88093 20.8268 4.77284 20.8268 7.10665C20.8268 7.10665 20.9475 9.84129 20.9475 12.4794C20.9475 14.9363 20.8268 17.3087 20.8268 17.3087Z" fill="#F5EFE2"/>
<path d="M17.6273 4.69195C18.394 4.69195 19.0157 5.31374 19.0157 6.0804C19.0157 6.84707 18.394 7.46885 17.6273 7.46885C16.8606 7.46885 16.2388 6.84707 16.2388 6.0804C16.2388 5.31374 16.8606 4.69195 17.6273 4.69195Z" fill="#F5EFE2"/>
<path d="M11.5 6.32187C8.21601 6.32187 5.55381 8.98408 5.55381 12.2681C5.55381 15.5521 8.21601 18.2143 11.5 18.2143C14.784 18.2143 17.4462 15.5521 17.4462 12.2681C17.4462 8.98408 14.784 6.32187 11.5 6.32187ZM11.5 16.041C9.38291 16.041 7.66667 14.3248 7.66667 12.2077C7.66667 10.0906 9.38291 8.37437 11.5 8.37437C13.6171 8.37437 15.3333 10.0906 15.3333 12.2077C15.3333 14.3248 13.6171 16.041 11.5 16.041Z" fill="#F5EFE2"/>
</svg>
