<svg viewBox="0 0 23 24" fill="none" xmlns="http://www.w3.org/2000/svg">
<path d="M21.3001 0.961914H1.69988C0.761309 0.961914 0 1.70004 0 2.60951V22.3149C0 23.2243 0.761401 23.9619 1.69988 23.9619H21.3001C22.2391 23.9619 23 23.2242 23 22.3146V2.60951C23 1.70004 22.2391 0.961914 21.3001 0.961914ZM6.98951 20.2099H3.54773V9.85515H6.98951V20.2099ZM5.26931 8.44172H5.26903L5.24677 8.44162C4.09169 8.44162 3.34488 7.64651 3.34488 6.6528C3.34488 5.65909 4.11423 4.86369 5.29212 4.86369C6.47002 4.86369 7.19392 5.63655 7.21637 6.65289C7.21637 7.6466 6.46928 8.44172 5.26931 8.44172ZM19.4002 20.2099H15.9588V14.671C15.9588 13.2788 15.4604 12.3294 14.2154 12.3294C13.2643 12.3294 12.698 12.9697 12.4494 13.5883C12.3585 13.809 12.336 14.1189 12.336 14.428V20.2099H8.89453V20.2102C8.89453 20.2102 8.93961 10.827 8.89472 9.85552H12.3362V11.3212C12.7937 10.6158 13.6125 9.61241 15.4381 9.61241C17.7024 9.61241 19.4002 11.0924 19.4002 14.2728V20.2099Z" fill="#F5EFE2"/>
</svg>
